# xmcd
#
# Track frame offsets: 
#        150
#        15752
#        29049
#        43755
#        58473
#        76187
#        91899
#        107966
#        121109
#        140008
#        157538
#
# Disc length: 2300 seconds
#
# Revision: 0
# Processed by: cddbd v1.5.2PL0 Copyright (c) Steve Scherf et al.
# Submitted via: ExactAudioCopyFreeDBPlugin 1.0
#
DISCID=8408fa0b
DTITLE=Nevada Slim - Alias [Bruce Matley Alias Nevada Slim]
DYEAR=2001
DGENRE=Country
TTITLE0=Greenback Dollar
TTITLE1=Crazy Arms
TTITLE2=Brandy (You're A Fine Girl)
TTITLE3=Got This Feeling
TTITLE4=In Knots Again
TTITLE5=Would You Catch a Falling Star?
TTITLE6=Cowpoke
TTITLE7=Lovesick Blues
TTITLE8=Leaving on a Jet Plane
TTITLE9=Hey There Hound
TTITLE10=Our Last Farewell
EXTD=
EXTT0=
EXTT1=
EXTT2=
EXTT3=
EXTT4=
EXTT5=
EXTT6=
EXTT7=
EXTT8=
EXTT9=
EXTT10=
PLAYORDER=
